<?xml version="1.0" encoding="utf-8"?>
<!-- Generator: Adobe Illustrator 17.0.0, SVG Export Plug-In . SVG Version: 6.00 Build 0)  -->
<!DOCTYPE svg PUBLIC "-//W3C//DTD SVG 1.1//EN" "http://www.w3.org/Graphics/SVG/1.1/DTD/svg11.dtd">
<svg version="1.1" id="图层_1" xmlns="http://www.w3.org/2000/svg" xmlns:xlink="http://www.w3.org/1999/xlink" x="0px" y="0px"
	 width="23.125px" height="23.208px" viewBox="-0.625 -0.583 23.125 23.208" enable-background="new -0.625 -0.583 23.125 23.208"
	 xml:space="preserve">
<title>Oval 119 Copy 2</title>
<desc>Created with Sketch.</desc>
<ellipse id="Oval-119-Copy-2" fill="#FFFFFF" stroke="#E5E5E5" cx="11" cy="11" rx="11" ry="11"/>
<path id="Page-1" fill="#D1D1D1" d="M12.583,12.847L12.583,12.847h-1.359H9.871c-0.812,0-1.546,0.334-2.076,0.871
	c-0.537,0.531-0.864,1.267-0.864,2.077v0.281h8.6v-0.281c0-0.81-0.334-1.546-0.868-2.077v-0.006
	C14.128,13.181,13.395,12.847,12.583,12.847L12.583,12.847z M13.349,6.802L13.349,6.802c-0.544-0.544-1.291-0.878-2.126-0.878
	c-0.828,0-1.578,0.334-2.119,0.878C8.56,7.345,8.223,8.095,8.223,8.924c0,0.825,0.337,1.578,0.881,2.123v0.003
	c0.541,0.541,1.291,0.878,2.119,0.878c0.835,0,1.579-0.337,2.123-0.881c0.543-0.544,0.881-1.297,0.881-2.123
	c0-0.829-0.338-1.578-0.881-2.122L13.349,6.802L13.349,6.802z M11.223,5c1.084,0,2.067,0.439,2.781,1.153
	c0.707,0.707,1.146,1.686,1.146,2.77c0,1.087-0.439,2.066-1.146,2.774c-0.131,0.134-0.272,0.252-0.416,0.363
	c0.665,0.178,1.251,0.531,1.726,1.003c0.701,0.693,1.14,1.67,1.14,2.732v0.739c0,0.256-0.209,0.465-0.465,0.465h-0.007H6.465
	C6.209,17,6,16.791,6,16.535v-0.007v-0.732c0-1.062,0.435-2.038,1.139-2.732c0.469-0.478,1.068-0.825,1.727-1.003
	c-0.148-0.114-0.285-0.229-0.412-0.363c-0.711-0.708-1.15-1.687-1.15-2.774c0-1.084,0.439-2.063,1.15-2.77
	C9.16,5.439,10.146,5,11.223,5L11.223,5z"/>
</svg>
